<svg id="pieChart" style="width: 100%; height: 60%;"><g class="nvd3 nv-wrap nv-pieChart" transform="translate(20,30)"><g><g class="nv-pieWrap"><g class="nvd3 nv-wrap nv-pie nv-chart-9473" transform="translate(0,0)"><g><g class="nv-pie" transform="translate(361.5,131.5)"><g class="nv-slice" fill="#1f77b4" stroke="#1f77b4"><path d="M0,-105.2A105.2,105.2 0 0,1 100.05114551425015,-32.508587808244464L0,0Z"></path></g><g class="nv-slice" fill="#aec7e8" stroke="#aec7e8"><path d="M100.05114551425015,-32.508587808244464A105.2,105.2 0 0,1 61.83500854116818,85.10858780824448L0,0Z"></path></g><g class="nv-slice" fill="#ff7f0e" stroke="#ff7f0e"><path d="M61.83500854116818,85.10858780824448A105.2,105.2 0 0,1 -61.835008541168165,85.10858780824448L0,0Z"></path></g><g class="nv-slice" fill="#ffbb78" stroke="#ffbb78"><path d="M-61.835008541168165,85.10858780824448A105.2,105.2 0 0,1 -100.05114551425015,-32.50858780824446L0,0Z"></path></g><g class="nv-slice" fill="#2ca02c" stroke="#2ca02c"><path d="M-100.05114551425015,-32.50858780824446A105.2,105.2 0 0,1 -1.9324926463599944e-14,-105.2L0,0Z"></path></g></g><g class="nv-pieLabels" transform="translate(361.5,131.5)"><g class="nv-label" transform="translate(73.97277400100774,-101.81478874208713)"><rect rx="3" ry="3" style="stroke: rgb(255, 255, 255); fill: rgb(255, 255, 255);"></rect><text style="text-anchor: middle; fill: rgb(0, 0, 0);">30</text></g><g class="nv-label" transform="translate(119.69046257574507,38.88978874208713)"><rect rx="3" ry="3" style="stroke: rgb(255, 255, 255); fill: rgb(255, 255, 255);"></rect><text style="text-anchor: middle; fill: rgb(0, 0, 0);">100</text></g><g class="nv-label" transform="translate(0,125.85)"><rect rx="3" ry="3" style="stroke: rgb(255, 255, 255); fill: rgb(255, 255, 255);"></rect><text style="text-anchor: middle; fill: rgb(0, 0, 0);">95</text></g><g class="nv-label" transform="translate(-119.69046257574507,38.88978874208713)"><rect rx="3" ry="3" style="stroke: rgb(255, 255, 255); fill: rgb(255, 255, 255);"></rect><text style="text-anchor: middle; fill: rgb(0, 0, 0);">84</text></g><g class="nv-label" transform="translate(-73.97277400100775,-101.81478874208712)"><rect rx="3" ry="3" style="stroke: rgb(255, 255, 255); fill: rgb(255, 255, 255);"></rect><text style="text-anchor: middle; fill: rgb(0, 0, 0);">90</text></g></g></g></g></g><g class="nv-legendWrap" transform="translate(0,-30)"><g class="nvd3 nv-legend" transform="translate(0,5)"><g transform="translate(517,5)"><g class="nv-series" transform="translate(0,5)"><circle class="nv-legend-symbol" r="5" style="stroke-width: 2px; fill: rgb(31, 119, 180); stroke: rgb(31, 119, 180);"></circle><text text-anchor="start" class="nv-legend-text" dy=".32em" dx="8">30</text></g><g class="nv-series" transform="translate(40,5)"><circle class="nv-legend-symbol" r="5" style="stroke-width: 2px; fill: rgb(174, 199, 232); stroke: rgb(174, 199, 232);"></circle><text text-anchor="start" class="nv-legend-text" dy=".32em" dx="8">100</text></g><g class="nv-series" transform="translate(86,5)"><circle class="nv-legend-symbol" r="5" style="stroke-width: 2px; fill: rgb(255, 127, 14); stroke: rgb(255, 127, 14);"></circle><text text-anchor="start" class="nv-legend-text" dy=".32em" dx="8">95</text></g><g class="nv-series" transform="translate(126,5)"><circle class="nv-legend-symbol" r="5" style="stroke-width: 2px; fill: rgb(255, 187, 120); stroke: rgb(255, 187, 120);"></circle><text text-anchor="start" class="nv-legend-text" dy=".32em" dx="8">84</text></g><g class="nv-series" transform="translate(166,5)"><circle class="nv-legend-symbol" r="5" style="stroke-width: 2px; fill: rgb(44, 160, 44); stroke: rgb(44, 160, 44);"></circle><text text-anchor="start" class="nv-legend-text" dy=".32em" dx="8">90</text></g></g></g></g></g></g></svg>